<svg xmlns="http://www.w3.org/2000/svg" viewBox="0 0 10.6 9.88"><defs><style>.cls-1{fill:#2e3b84;}.cls-2{fill:#f2f2f2;}.cls-3{fill:#fff;}</style></defs><title>Asset 1</title><g id="Layer_2" data-name="Layer 2"><g id="Layer_1-2" data-name="Layer 1"><path class="cls-1" d="M10.6,4.94a.41.41,0,0,1,0,.11s0,0,0,.07a2.64,2.64,0,0,1,0,.29,1.3,1.3,0,0,1,0,.21.19.19,0,0,1,0,.08c0,.13,0,.23,0,.32a.6.6,0,0,1-.05.16.73.73,0,0,1-.06.21,4.33,4.33,0,0,1-.21.54s0,0,0,0a.79.79,0,0,1-.08.16,1.29,1.29,0,0,1-.09.16,4.61,4.61,0,0,1-.63.87l-.28.28A5.47,5.47,0,0,1,5.3,9.88,5.33,5.33,0,0,1,.55,7.11a.66.66,0,0,1-.1-.18,4.08,4.08,0,0,1-.22-.54,1.6,1.6,0,0,1-.05-.21,2.66,2.66,0,0,1-.12-.56l0-.21a1.4,1.4,0,0,1,0-.36.37.37,0,0,1,0-.11.28.28,0,0,1,0-.09,1.51,1.51,0,0,1,0-.37,1.36,1.36,0,0,1,0-.2,2.24,2.24,0,0,1,.13-.57.49.49,0,0,1,.05-.2A3.11,3.11,0,0,1,.45,3a.48.48,0,0,1,.1-.17A5.3,5.3,0,0,1,5.3,0,5.55,5.55,0,0,1,9.07,1.45c.09.08.18.19.27.28a5.14,5.14,0,0,1,.65.9s0,.1.08.15,0,.11.09.17h0a4.48,4.48,0,0,1,.21.55,1.46,1.46,0,0,1,.05.2.84.84,0,0,1,.05.17c0,.09,0,.2.06.32a.22.22,0,0,1,0,.08.69.69,0,0,1,0,.2c0,.1,0,.22,0,.32s0,0,0,0A.25.25,0,0,1,10.6,4.94Z"/><path class="cls-2" d="M10.57,4.48H9.13L8.6,4H7.38V3.79H8.7l.52.49h1.32A.69.69,0,0,1,10.57,4.48Z"/><path class="cls-2" d="M10.57,5.41a1.3,1.3,0,0,1,0,.21H9.07l-.52.48H7.23V5.9H8.46L9,5.41Z"/><path class="cls-2" d="M10.6,4.94a.41.41,0,0,1,0,.11H8.28v-.2h2.31A.25.25,0,0,1,10.6,4.94Z"/><path class="cls-2" d="M10.42,3.71H8.73l-.6-.57-.06-.05L8.22,3,8.3,3l.53.5h1.54A1.46,1.46,0,0,1,10.42,3.71Z"/><path class="cls-2" d="M10.42,6.18a.73.73,0,0,1-.06.21H9l-.54.49L8.38,7l-.15-.15.08-.07.59-.56Z"/><path class="cls-2" d="M7.31,5.9A.35.35,0,0,0,7,5.66.38.38,0,0,0,6.54,6,.39.39,0,0,0,7,6.4a.4.4,0,0,0,.39-.3V6A.19.19,0,0,0,7.31,5.9ZM7,6.23a.21.21,0,1,1,0-.41.21.21,0,1,1,0,.41Z"/><path class="cls-2" d="M8.33,4.85A.38.38,0,0,0,8,4.57a.38.38,0,1,0,0,.76.38.38,0,0,0,.37-.28.26.26,0,0,0,0-.2ZM8,5.16A.23.23,0,0,1,7.72,5,.24.24,0,0,1,8,4.73.23.23,0,0,1,8.18,5,.22.22,0,0,1,8,5.16Z"/><path class="cls-2" d="M10.36,6.93c-.06.06-.11.12-.17.17h-.7V6.93Z"/><path class="cls-2" d="M9.52,7v0a.25.25,0,0,0-.25-.17A.27.27,0,0,0,9,7a.28.28,0,0,0,.29.26.26.26,0,0,0,.25-.17v0a.25.25,0,0,0,0-.14Zm-.26.21A.15.15,0,0,1,9.1,7a.16.16,0,0,1,.16-.15A.16.16,0,0,1,9.42,7,.15.15,0,0,1,9.26,7.16Z"/><path class="cls-2" d="M10.16,3H9.49V2.78h.58C10.1,2.83,10.12,2.89,10.16,3Z"/><path class="cls-2" d="M9.53,2.8v0a.26.26,0,0,0-.26-.18A.28.28,0,0,0,9,2.86a.27.27,0,0,0,.29.26A.28.28,0,0,0,9.52,3v0s0,0,0-.07A.35.35,0,0,0,9.53,2.8ZM9.26,3a.15.15,0,0,1-.16-.15.16.16,0,0,1,.16-.15.16.16,0,0,1,.16.15A.16.16,0,0,1,9.26,3Z"/><path class="cls-2" d="M7.5,3.79a.39.39,0,0,0-.39-.29.4.4,0,0,0-.41.38A.41.41,0,0,0,7.48,4a.27.27,0,0,0,0-.12S7.5,3.82,7.5,3.79Zm-.39.29a.23.23,0,0,1-.23-.2.23.23,0,0,1,.23-.22.22.22,0,0,1,.22.22A.22.22,0,0,1,7.11,4.08Z"/><path class="cls-3" d="M8,2.44a.4.4,0,0,0-.41.37A.39.39,0,0,0,8,3.18a.33.33,0,0,0,.17,0A.36.36,0,0,0,8.3,3a.39.39,0,0,0,.06-.2A.39.39,0,0,0,8,2.44Zm-.23.37A.23.23,0,1,1,8,3,.22.22,0,0,1,7.73,2.81Z"/><path class="cls-2" d="M8.46,6.88a.34.34,0,0,0-.15-.14.41.41,0,0,0-.19,0,.38.38,0,1,0,.4.38A.33.33,0,0,0,8.46,6.88Zm-.34.39a.21.21,0,1,1,0-.41.21.21,0,1,1,0,.41Z"/><path class="cls-2" d="M3.24,3.79V4H2l-.52.48H0a1.36,1.36,0,0,1,0-.2H1.4l.52-.49Z"/><polygon class="cls-2" points="0.03 5.41 1.65 5.41 2.16 5.9 3.3 5.9 3.38 5.9 3.38 6.1 3.28 6.1 2.07 6.1 1.54 5.62 0.06 5.62 0.03 5.41"/><path class="cls-2" d="M2.34,4.85v.2H0a.37.37,0,0,1,0-.11.28.28,0,0,1,0-.09Z"/><path class="cls-2" d="M2.54,3.09l-.66.62H.18a.49.49,0,0,1,.05-.2H1.79L2.32,3,2.39,3Z"/><path class="cls-2" d="M2.38,6.81,2.23,7l-.08-.08-.52-.49H.23a1.6,1.6,0,0,1-.05-.21H1.72l.59.56Z"/><path class="cls-2" d="M3.68,5.66a.38.38,0,0,0-.38.24.3.3,0,0,0,0,.12.22.22,0,0,0,0,.08.4.4,0,0,0,.4.3A.39.39,0,0,0,4.08,6,.38.38,0,0,0,3.68,5.66Zm0,.57a.21.21,0,1,1,0-.41.21.21,0,1,1,0,.41Z"/><path class="cls-2" d="M2.67,4.57a.39.39,0,0,0-.39.28.26.26,0,0,0,0,.2.4.4,0,1,0,.39-.48Zm0,.59A.23.23,0,0,1,2.43,5a.24.24,0,0,1,.24-.22A.23.23,0,0,1,2.89,5,.22.22,0,0,1,2.67,5.16Z"/><path class="cls-2" d="M1.12,6.93v.18H.55a.66.66,0,0,1-.1-.18Z"/><path class="cls-2" d="M1.36,6.76a.25.25,0,0,0-.26.17V7s0,0,0,.07,0,.05,0,.07v0a.27.27,0,0,0,.26.17A.28.28,0,0,0,1.65,7,.27.27,0,0,0,1.36,6.76Zm0,.4A.15.15,0,0,1,1.2,7a.16.16,0,0,1,.32,0A.15.15,0,0,1,1.36,7.16Z"/><path class="cls-3" d="M.26,3h.87V2.78H.42Z"/><path class="cls-2" d="M1.36,2.6a.26.26,0,0,0-.26.18v0s0,0,0,.06a.15.15,0,0,0,0,.07V3a.28.28,0,0,0,.26.17.27.27,0,0,0,.29-.26A.28.28,0,0,0,1.36,2.6Zm0,.41a.15.15,0,0,1-.16-.15.16.16,0,0,1,.32,0A.15.15,0,0,1,1.36,3Z"/><path class="cls-2" d="M3.51,3.5a.37.37,0,0,0-.39.29s0,.06,0,.09a.5.5,0,0,0,0,.12.4.4,0,0,0,.38.24.38.38,0,0,0,.4-.36A.38.38,0,0,0,3.51,3.5Zm0,.58a.22.22,0,0,1-.23-.2.23.23,0,0,1,.46,0A.22.22,0,0,1,3.51,4.08Z"/><path class="cls-2" d="M2.66,2.44a.38.38,0,0,0-.4.37.32.32,0,0,0,.06.2.33.33,0,0,0,.16.13.34.34,0,0,0,.18,0,.38.38,0,0,0,.4-.37A.39.39,0,0,0,2.66,2.44Zm0,.58a.21.21,0,1,1,0-.42.21.21,0,1,1,0,.42Z"/><path class="cls-2" d="M2.49,6.69a.37.37,0,0,0-.18,0,.36.36,0,0,0-.16.14.42.42,0,0,0-.06.19.39.39,0,0,0,.4.37.38.38,0,1,0,0-.75Zm0,.58a.21.21,0,1,1,0-.41.21.21,0,1,1,0,.41Z"/></g></g></svg>